<?xml version="1.0" encoding="UTF-8"?>
<svg width="21" height="21" xmlns="http://www.w3.org/2000/svg">
    <path d="M10.08.105C4.578.105.105 4.578.105 10.08s4.473 9.975 9.975 9.975 9.975-4.473 9.975-9.975S15.582.105 10.08.105zm1.113 14.952a1.12 1.12 0 01-1.113 1.113 1.12 1.12 0 01-1.113-1.113V9.492a1.12 1.12 0 011.113-1.113 1.12 1.12 0 011.113 1.113v5.565zM10.08 6.95a1.452 1.452 0 01-1.449-1.448c0-.799.652-1.45 1.449-1.45.798 0 1.449.652 1.449 1.45 0 .797-.65 1.448-1.449 1.448z" fill="#000" fill-rule="nonzero"/>
</svg>